<?xml version="1.0" encoding="iso-8859-1"?>
<!-- Generator: Adobe Illustrator 19.0.0, SVG Export Plug-In . SVG Version: 6.00 Build 0)  -->
<svg xmlns="http://www.w3.org/2000/svg" xmlns:xlink="http://www.w3.org/1999/xlink" version="1.1" id="Capa_1" x="0px" y="0px" viewBox="0 0 511.999 511.999" style="enable-background:new 0 0 511.999 511.999;" xml:space="preserve" width="512px" height="512px">
<g>
	<g>
		<path d="M256,62.958c-30.826,0-55.906,25.079-55.906,55.906s25.078,55.906,55.906,55.906c30.826,0,55.906-25.079,55.906-55.906    S286.826,62.958,256,62.958z M256,154.721c-19.772,0-35.857-16.086-35.857-35.857c0-19.772,16.086-35.857,35.857-35.857    c19.773,0,35.857,16.086,35.857,35.857C291.857,138.635,275.772,154.721,256,154.721z" fill="#FFFFFF"/>
	</g>
</g>
<g>
	<g>
		<path d="M501.976,215.896H336.651l15.811-23.472c15.218-20.675,23.259-45.193,23.259-70.92    c0-66.015-53.707-119.722-119.722-119.722S136.278,55.489,136.278,121.504c0,25.727,8.041,50.246,23.259,70.92l15.811,23.472    H10.024C4.488,215.896,0,220.384,0,225.92v274.27c0,5.536,4.488,10.024,10.024,10.024h92.328c0.024,0,0.049,0.003,0.073,0.003    c0.025,0,0.049-0.003,0.074-0.003h153.498h0.036h152.659c0.025,0,0.049,0.003,0.074,0.003c0.024,0,0.049-0.003,0.074-0.003h93.133    c5.536,0,10.024-4.488,10.024-10.024V225.92C512,220.384,507.512,215.896,501.976,215.896z M156.326,121.504    c0-54.96,44.713-99.674,99.674-99.674s99.674,44.714,99.674,99.674c0,21.398-6.682,41.793-19.323,58.989    c-0.128,0.167-0.252,0.338-0.37,0.513l-79.982,118.737l-79.982-118.737c-0.113-0.167-0.232-0.334-0.356-0.495    C163.012,163.31,156.326,142.91,156.326,121.504z M95.207,490.166H20.048V235.944h160.21L95.207,490.166z M265.989,490.168    l-0.231-66.405c-0.019-5.524-4.504-9.989-10.024-9.989c-0.012,0-0.023,0-0.035,0c-5.536,0.019-10.008,4.523-9.989,10.059    l0.231,66.334H116.348l80.888-241.778l48.495,71.991l0.246,32.657c0.041,5.51,4.521,9.949,10.022,9.949c0.025,0,0.051,0,0.077,0    c5.536-0.042,9.99-4.563,9.948-10.099l-0.24-31.784l48.942-72.656l80.159,241.722H265.989z M491.952,490.166h-75.945    l-84.305-254.222h160.25V490.166z" fill="#FFFFFF"/>
	</g>
</g>
<g>
	<g>
		<path d="M255.934,378.689h-0.201c-5.536,0-10.024,4.488-10.024,10.024s4.488,10.024,10.024,10.024h0.201    c5.536,0,10.024-4.488,10.024-10.024S261.47,378.689,255.934,378.689z" fill="#FFFFFF"/>
	</g>
</g>
<g>
</g>
<g>
</g>
<g>
</g>
<g>
</g>
<g>
</g>
<g>
</g>
<g>
</g>
<g>
</g>
<g>
</g>
<g>
</g>
<g>
</g>
<g>
</g>
<g>
</g>
<g>
</g>
<g>
</g>
</svg>
