<?xml version="1.0" encoding="iso-8859-1"?>
<!-- Generator: Adobe Illustrator 19.0.0, SVG Export Plug-In . SVG Version: 6.00 Build 0)  -->
<svg version="1.1" id="Capa_1" xmlns="http://www.w3.org/2000/svg" xmlns:xlink="http://www.w3.org/1999/xlink" x="0px" y="0px"
	 viewBox="0 0 512 512" style="enable-background:new 0 0 512 512;" xml:space="preserve">
<rect y="211.543" style="fill:#2488FF;" width="512" height="298.708"/>
<rect x="256.03" y="211.543" style="fill:#005ECE;" width="255.97" height="298.708"/>
<polygon style="fill:#FFFFFF;" points="333.356,229.525 256,229.466 178.647,229.466 84.711,510.252 426.451,510.252 "/>
<polygon style="fill:#D8D7DA;" points="255.5,510.252 426.451,510.252 333.356,229.525 256,229.466 "/>
<path style="fill:#FF3501;" d="M378.47,124.219c0,26.274-8.202,51.33-23.727,72.459l-20.11,29.851l-12.098,17.972L256,343.265
	l-66.565-98.814l-12.068-17.923l-20.11-29.851c-15.525-21.129-23.727-46.185-23.727-72.459c0-67.534,54.936-122.47,122.47-122.47
	S378.47,56.685,378.47,124.219z"/>
<path style="fill:#CD2A00;" d="M256,1.748c67.534,0,122.47,54.936,122.47,122.47c0,26.274-8.202,51.33-23.727,72.459l-20.11,29.851
	l-12.098,17.972L256,343.265V1.748z"/>
<path style="fill:#FFFFFF;" d="M256,61.69c-33.052,0-59.941,26.89-59.941,59.941s26.89,59.941,59.941,59.941
	s59.941-26.89,59.941-59.941S289.052,61.69,256,61.69z"/>
<path style="fill:#D8D7DA;" d="M256,181.573c33.052,0,59.941-26.89,59.941-59.941S289.052,61.69,256,61.69V181.573z"/>
<g>
	<rect x="240.885" y="371.387" style="fill:#005ECE;" width="30.091" height="29.971"/>
	<rect x="240.885" y="431.329" style="fill:#005ECE;" width="30.091" height="29.971"/>
</g>
<g>
</g>
<g>
</g>
<g>
</g>
<g>
</g>
<g>
</g>
<g>
</g>
<g>
</g>
<g>
</g>
<g>
</g>
<g>
</g>
<g>
</g>
<g>
</g>
<g>
</g>
<g>
</g>
<g>
</g>
</svg>
